<?xml version="1.0" standalone="no"?>
<!DOCTYPE svg PUBLIC "-//W3C//DTD SVG 20010904//EN"
 "http://www.w3.org/TR/2001/REC-SVG-20010904/DTD/svg10.dtd">
<svg version="1.0" xmlns="http://www.w3.org/2000/svg"
 width="2048.000000pt" height="2048.000000pt" viewBox="0 0 2048.000000 2048.000000"
 preserveAspectRatio="xMidYMid meet">
<metadata>
Created by potrace 1.14, written by Peter Selinger 2001-2017
</metadata>
<g transform="translate(0.000000,2048.000000) scale(0.100000,-0.100000)"
fill="#000000" stroke="none">
<path d="M9878 20475 c-1 -1 -75 -6 -163 -10 -88 -4 -176 -8 -195 -10 -19 -2
-73 -6 -120 -10 -47 -3 -103 -8 -125 -10 -58 -6 -200 -21 -280 -31 -91 -11
-110 -13 -145 -19 -19 -3 -53 -7 -75 -10 -22 -3 -49 -6 -60 -9 -11 -2 -45 -7
-75 -11 -30 -4 -64 -9 -75 -11 -11 -2 -60 -11 -110 -20 -372 -65 -788 -163
-1145 -270 -259 -78 -749 -249 -884 -308 -17 -8 -83 -35 -146 -61 -63 -26
-135 -56 -160 -67 -798 -357 -1530 -795 -2188 -1310 -206 -161 -515 -425 -677
-578 -136 -128 -455 -450 -555 -559 -52 -58 -102 -112 -110 -120 -38 -40 -238
-278 -325 -386 -53 -66 -103 -129 -113 -140 -131 -159 -559 -777 -658 -950 -6
-11 -45 -78 -88 -149 -42 -70 -76 -130 -76 -132 0 -2 -13 -25 -29 -51 -101
-167 -329 -626 -458 -923 -29 -69 -58 -134 -63 -145 -15 -32 -161 -406 -175
-450 -7 -22 -32 -94 -55 -160 -96 -278 -232 -746 -266 -915 -3 -14 -11 -50
-19 -80 -12 -49 -50 -216 -61 -274 -2 -11 -9 -46 -15 -76 -16 -85 -18 -97 -39
-215 -10 -60 -22 -128 -25 -150 -7 -49 -22 -156 -30 -210 -3 -22 -7 -53 -10
-70 -2 -16 -7 -57 -10 -90 -3 -33 -8 -69 -10 -80 -2 -11 -7 -51 -10 -90 -3
-38 -8 -81 -10 -95 -2 -14 -7 -63 -10 -110 -4 -47 -8 -105 -10 -130 -27 -371
-27 -1061 0 -1445 12 -165 32 -373 50 -515 3 -19 7 -55 10 -80 3 -25 7 -56 10
-70 2 -14 7 -50 10 -80 4 -30 9 -64 11 -75 2 -11 7 -40 10 -65 3 -25 7 -52 9
-60 3 -8 7 -32 11 -54 3 -21 7 -48 10 -60 2 -11 13 -70 24 -131 23 -127 22
-120 50 -249 12 -54 23 -107 25 -118 2 -11 7 -28 10 -38 3 -10 7 -27 9 -37 2
-10 11 -45 19 -78 9 -33 18 -71 21 -85 2 -14 20 -81 39 -150 215 -776 479
-1441 842 -2125 169 -318 446 -771 632 -1034 15 -21 35 -49 43 -61 37 -55 292
-394 360 -479 65 -81 295 -355 325 -387 5 -7 48 -54 95 -105 285 -314 632
-651 925 -899 61 -51 133 -112 160 -135 28 -23 78 -64 112 -91 34 -27 89 -71
123 -97 275 -217 827 -590 1110 -749 25 -14 90 -52 145 -83 485 -278 1123
-563 1714 -766 267 -91 846 -256 1033 -293 13 -3 68 -14 123 -26 251 -53 653
-121 860 -145 48 -5 104 -12 170 -20 27 -4 73 -8 210 -21 39 -3 138 -11 261
-19 337 -23 1060 -23 1286 0 24 2 86 7 138 10 88 5 116 8 225 19 22 3 69 8
105 11 122 12 433 53 460 60 8 3 35 7 60 10 70 9 384 66 465 85 22 5 103 23
180 40 231 51 644 162 805 217 25 8 50 16 55 17 6 2 17 5 25 8 8 3 78 27 155
53 184 62 366 130 550 205 146 59 176 72 260 110 22 10 92 42 155 70 115 52
486 235 505 249 6 5 57 33 115 63 129 69 280 156 474 273 90 55 407 265 509
337 107 75 288 208 297 218 3 3 32 25 65 49 62 46 306 240 315 250 3 4 50 44
105 91 55 47 107 92 116 100 9 8 56 51 105 95 160 144 350 330 534 522 83 86
139 147 270 293 70 78 321 382 401 485 353 455 652 914 942 1445 42 77 207
409 252 505 241 519 452 1092 585 1585 50 184 79 293 84 320 3 14 10 45 17 70
6 25 12 52 14 60 7 33 85 417 90 445 3 17 7 44 10 60 3 17 10 53 15 80 6 28
12 70 15 95 3 25 12 86 20 135 23 140 59 466 71 626 3 46 7 104 9 129 27 318
27 1112 0 1425 -2 22 -6 78 -10 125 -4 47 -8 99 -10 115 -1 17 -6 62 -9 100
-4 39 -9 84 -11 100 -3 17 -7 53 -10 80 -3 28 -10 82 -16 120 -5 39 -12 88
-14 110 -3 22 -8 51 -10 65 -5 27 -8 44 -25 155 -17 107 -18 114 -66 355 -39
192 -143 628 -174 725 -6 17 -24 77 -41 135 -131 447 -316 938 -522 1385 -64
140 -279 560 -336 658 -28 49 -51 90 -51 92 0 4 -185 315 -220 370 -110 173
-355 533 -407 600 -5 6 -33 44 -63 85 -54 74 -326 418 -391 494 -104 122 -240
275 -329 371 -163 175 -543 547 -683 667 -12 11 -36 32 -52 46 -177 157 -409
346 -620 504 -5 4 -23 18 -40 31 -59 47 -373 265 -500 348 -497 325 -1073 633
-1605 856 -85 36 -168 71 -185 78 -80 35 -541 204 -567 209 -7 1 -62 18 -123
38 -126 42 -283 90 -370 113 -378 101 -607 154 -920 211 -44 8 -96 17 -115 20
-19 3 -73 11 -120 19 -79 13 -209 31 -290 41 -19 2 -48 6 -65 9 -16 2 -55 7
-85 10 -30 3 -71 7 -90 10 -19 2 -71 8 -115 11 -44 4 -93 8 -110 10 -16 1 -82
6 -145 9 -63 4 -131 9 -150 11 -40 6 -906 14 -912 9z m652 -620 c140 -3 275
-8 300 -10 25 -2 88 -7 140 -10 52 -4 106 -8 120 -10 14 -1 64 -6 110 -10 47
-4 93 -9 102 -10 9 -2 48 -7 85 -10 37 -4 75 -8 83 -10 8 -3 42 -7 75 -10 33
-3 67 -8 75 -10 8 -3 35 -7 60 -10 25 -3 70 -10 100 -15 30 -5 71 -12 90 -15
19 -3 46 -8 60 -10 38 -8 70 -14 130 -25 122 -22 330 -67 425 -91 44 -12 87
-22 95 -24 47 -9 278 -73 420 -115 729 -218 1385 -503 2095 -910 422 -242 943
-611 1349 -954 149 -126 218 -187 351 -311 199 -186 470 -462 600 -610 33 -37
65 -74 72 -80 7 -7 44 -50 84 -96 39 -46 81 -95 93 -109 12 -14 44 -54 71 -90
28 -36 55 -69 61 -75 14 -13 130 -163 212 -275 135 -184 403 -580 457 -677 17
-31 57 -96 80 -133 25 -39 48 -79 127 -220 227 -410 426 -838 578 -1240 34
-91 66 -174 71 -185 52 -122 260 -817 294 -984 2 -9 8 -36 14 -61 32 -137 41
-178 46 -205 11 -57 16 -80 30 -150 17 -86 73 -414 80 -475 3 -25 12 -94 20
-155 8 -60 17 -139 20 -175 4 -36 8 -75 10 -88 2 -12 7 -64 10 -115 4 -50 9
-108 11 -127 20 -202 26 -963 11 -1228 -14 -222 -24 -354 -32 -402 -2 -14 -7
-61 -10 -105 -3 -44 -8 -91 -10 -105 -2 -14 -7 -45 -10 -70 -3 -25 -8 -56 -10
-70 -2 -14 -7 -50 -10 -80 -4 -30 -9 -64 -11 -75 -2 -11 -7 -44 -10 -74 -3
-30 -7 -57 -9 -60 -3 -6 -37 -191 -50 -271 -3 -19 -9 -53 -15 -75 -5 -22 -23
-103 -40 -180 -78 -355 -177 -704 -303 -1065 -60 -172 -95 -266 -116 -315 -5
-11 -19 -47 -32 -80 -54 -145 -191 -450 -310 -690 -228 -463 -455 -844 -766
-1289 -50 -72 -246 -336 -275 -371 -10 -11 -49 -60 -88 -110 -65 -82 -139
-171 -165 -199 -5 -6 -35 -40 -65 -76 -30 -36 -59 -70 -65 -76 -5 -6 -55 -60
-110 -120 -183 -201 -574 -584 -740 -725 -22 -19 -45 -38 -51 -44 -82 -74
-455 -377 -460 -372 -1 1 3 31 11 67 7 36 16 79 19 95 3 17 7 41 10 55 3 14
15 79 26 145 12 66 23 131 26 145 8 46 47 305 59 390 6 47 9 65 20 140 11 76
13 93 20 150 4 30 8 66 10 80 2 14 6 54 10 90 3 36 8 76 10 90 5 31 16 123 20
170 7 80 16 167 20 190 3 22 11 103 20 205 2 17 6 68 10 115 3 47 8 101 10
120 5 45 14 154 20 250 3 41 7 105 10 142 9 120 14 201 20 318 3 63 8 144 10
180 20 307 38 1033 38 1495 0 280 -11 919 -18 1070 -2 44 -6 157 -10 250 -3
94 -8 197 -10 230 -2 33 -7 114 -10 180 -3 66 -8 147 -10 180 -2 33 -7 112
-10 175 -8 138 -12 212 -20 305 -3 39 -8 97 -10 130 -3 33 -8 96 -11 140 -3
44 -7 100 -9 125 -3 25 -7 83 -10 130 -6 89 -10 133 -21 240 -3 36 -7 79 -9
95 -13 156 -17 195 -20 225 -2 19 -6 58 -9 85 -13 131 -19 181 -21 195 -2 8
-6 53 -10 100 -4 47 -8 87 -10 90 -1 3 -6 41 -10 84 -4 43 -8 86 -10 95 -1 9
-6 45 -10 81 -8 70 -11 101 -20 170 -3 25 -8 65 -11 90 -11 95 -25 206 -29
235 -2 17 -7 53 -10 80 -4 28 -8 60 -10 71 -2 12 -6 48 -10 80 -4 33 -8 70
-10 83 -3 13 -7 43 -10 65 -4 33 -37 265 -60 431 -3 17 -11 80 -20 140 -8 61
-18 126 -21 145 -2 19 -7 53 -10 75 -2 22 -7 51 -9 65 -2 14 -9 61 -15 105 -6
44 -13 91 -15 104 -2 13 -7 45 -11 70 -4 25 -8 53 -9 61 -2 9 -7 43 -11 75 -4
33 -9 62 -9 65 -2 5 -13 80 -21 135 -3 17 -9 55 -14 85 -5 30 -17 105 -25 165
-9 61 -18 121 -20 135 -2 14 -14 86 -25 160 -11 74 -23 142 -25 150 -2 8 -7
35 -10 60 -3 25 -8 61 -11 80 -3 19 -7 50 -9 68 -2 18 -7 49 -9 70 -8 56 -15
168 -21 372 -3 102 -8 207 -11 235 -2 27 -7 79 -9 115 -7 93 -24 236 -40 335
-13 79 -15 93 -20 130 -4 22 -8 48 -11 57 -3 10 -7 30 -10 45 -30 173 -102
452 -156 598 -122 332 -285 549 -498 663 -97 53 -170 73 -272 76 -267 8 -528
-146 -710 -420 -120 -181 -181 -311 -380 -809 -55 -137 -105 -256 -111 -263
-8 -11 -14 -4 -24 30 -13 43 -71 266 -78 303 -8 37 -86 317 -121 431 -151 498
-415 748 -781 739 -271 -7 -491 -164 -718 -515 -136 -208 -320 -615 -435 -960
-29 -87 -112 -325 -114 -327 -1 -1 -31 -7 -66 -12 -36 -6 -78 -13 -93 -16 -53
-10 -262 -65 -367 -96 -58 -17 -127 -37 -155 -45 -77 -21 -287 -97 -415 -149
-1047 -429 -1610 -1105 -1537 -1845 19 -198 107 -431 236 -628 34 -52 67 -100
74 -108 7 -8 17 -20 22 -27 78 -97 217 -241 310 -322 67 -58 256 -196 349
-255 249 -157 623 -328 922 -421 54 -17 151 -49 214 -71 63 -22 176 -60 251
-84 261 -84 406 -189 515 -371 56 -94 84 -175 109 -313 8 -41 9 -296 1 -308
-3 -5 -8 -31 -11 -58 -24 -176 -97 -392 -203 -594 -272 -522 -755 -965 -1317
-1209 -27 -12 -59 -26 -70 -31 -170 -78 -653 -227 -855 -264 -14 -2 -45 -9
-70 -14 -25 -6 -65 -14 -90 -17 -24 -4 -47 -8 -50 -10 -6 -3 -25 -7 -240 -40
-85 -13 -182 -26 -216 -30 -33 -3 -71 -7 -85 -9 -13 -3 -55 -7 -94 -11 -38 -4
-77 -8 -85 -10 -8 -2 -51 -6 -95 -9 -44 -4 -93 -9 -110 -11 -84 -10 -125 -15
-175 -20 -30 -3 -71 -7 -90 -10 -19 -3 -62 -7 -95 -10 -33 -3 -71 -8 -85 -10
-14 -3 -52 -7 -85 -10 -33 -3 -76 -7 -95 -10 -19 -2 -60 -7 -90 -11 -30 -4
-62 -8 -71 -9 -9 -2 -38 -6 -65 -10 -27 -3 -58 -7 -69 -9 -11 -2 -45 -7 -75
-11 -62 -8 -69 -9 -195 -30 -166 -29 -359 -66 -445 -87 -47 -11 -96 -22 -110
-24 -52 -11 -320 -86 -425 -121 -130 -42 -315 -113 -402 -154 -35 -16 -92 -43
-128 -59 -169 -79 -421 -239 -575 -364 -98 -80 -280 -262 -356 -356 -169 -210
-331 -488 -438 -755 -16 -38 -34 -83 -41 -100 -77 -190 -206 -649 -271 -960
-2 -11 -13 -60 -23 -110 -19 -86 -57 -267 -81 -385 -6 -30 -13 -71 -16 -90 -3
-19 -15 -80 -25 -135 -11 -55 -22 -118 -25 -140 -3 -22 -7 -46 -10 -54 -3 -8
-7 -30 -10 -50 -3 -20 -11 -72 -19 -116 -12 -70 -20 -121 -41 -265 -9 -63 -26
-165 -29 -180 -2 -8 -4 -17 -4 -20 -2 -8 -269 278 -382 410 -58 67 -253 302
-282 340 -7 8 -42 53 -78 100 -256 332 -573 809 -762 1150 -136 246 -274 518
-369 730 -38 85 -78 174 -89 198 -10 23 -46 111 -79 195 -34 83 -65 161 -70
172 -28 60 -164 465 -228 680 -44 144 -112 400 -137 515 -2 8 -17 74 -33 145
-16 72 -32 146 -36 165 -3 19 -8 46 -11 60 -3 14 -9 50 -15 80 -6 30 -12 66
-15 80 -3 14 -7 36 -9 50 -3 14 -8 43 -11 65 -3 22 -8 51 -10 65 -13 78 -37
251 -41 290 -2 25 -7 65 -10 90 -4 25 -8 61 -10 80 -1 19 -5 58 -8 85 -31 287
-41 512 -41 945 0 398 7 606 30 839 22 238 24 253 41 386 34 268 107 692 144
835 5 19 12 51 15 70 8 46 120 483 138 540 8 25 29 92 47 150 284 936 733
1857 1311 2685 57 82 350 472 387 515 16 19 78 94 138 165 59 72 113 135 119
141 5 6 44 48 85 94 229 254 552 574 770 766 30 26 60 53 67 59 6 7 57 50 113
96 56 46 114 94 129 107 143 124 540 415 796 584 446 294 1003 596 1439 780
39 17 89 38 111 48 169 76 614 239 865 317 115 36 487 140 525 147 11 2 47 11
80 20 74 19 377 85 425 92 19 3 53 9 75 14 22 5 54 11 70 14 163 27 216 36
255 41 25 3 52 8 60 10 8 2 44 7 80 10 36 3 72 8 80 10 8 2 42 7 75 10 33 3
69 7 80 9 11 2 56 7 100 11 44 4 94 9 110 10 17 2 75 6 130 10 55 4 116 8 135
10 19 2 150 7 290 11 140 3 256 7 257 8 2 1 20 1 40 0 21 -1 153 -5 293 -9z
m2041 -3028 c57 -39 121 -178 190 -417 12 -41 27 -95 34 -120 8 -25 35 -128
60 -230 99 -391 172 -553 309 -683 154 -145 394 -168 574 -54 169 106 261 256
451 733 61 153 115 288 120 299 26 62 119 239 158 299 57 88 133 162 182 177
39 12 59 5 114 -41 102 -84 213 -382 296 -795 27 -133 35 -182 56 -340 3 -23
7 -50 9 -60 2 -11 7 -65 11 -119 4 -55 8 -107 10 -115 2 -9 6 -108 10 -221 9
-273 16 -389 29 -457 3 -11 7 -44 10 -74 3 -30 8 -65 11 -79 2 -14 11 -70 20
-125 9 -55 18 -113 21 -130 3 -16 7 -46 10 -65 2 -19 9 -60 14 -90 5 -30 12
-75 15 -100 8 -59 14 -99 20 -130 3 -14 7 -41 9 -60 3 -19 7 -48 10 -65 2 -16
10 -66 16 -110 6 -44 18 -117 25 -161 8 -45 17 -103 20 -130 3 -27 8 -58 10
-69 2 -11 7 -42 10 -70 3 -27 10 -75 15 -105 5 -30 12 -79 15 -109 4 -30 9
-63 11 -75 2 -11 6 -38 9 -61 5 -38 22 -161 30 -215 6 -40 16 -113 21 -141 2
-15 6 -47 9 -70 3 -24 8 -55 10 -69 6 -40 27 -196 40 -300 3 -30 8 -66 10 -80
10 -71 15 -110 21 -159 3 -30 7 -63 9 -73 2 -11 7 -47 10 -81 3 -34 8 -73 10
-87 2 -14 6 -50 9 -80 4 -30 13 -107 21 -170 7 -63 17 -144 20 -180 4 -36 8
-78 10 -95 2 -16 7 -61 10 -100 3 -38 8 -77 10 -85 2 -8 7 -46 10 -85 3 -38 8
-88 10 -110 6 -57 14 -141 20 -207 12 -142 16 -175 20 -213 2 -22 7 -80 10
-130 4 -49 8 -108 10 -130 4 -46 14 -183 21 -270 2 -33 6 -87 9 -120 13 -163
18 -230 30 -480 6 -115 16 -295 20 -365 2 -36 7 -139 10 -230 3 -91 7 -235 10
-320 3 -85 8 -222 10 -305 6 -183 6 -1100 0 -1315 -11 -409 -23 -722 -40
-1000 -2 -36 -7 -112 -10 -170 -4 -58 -8 -123 -10 -145 -4 -40 -13 -172 -20
-275 -2 -30 -7 -84 -10 -120 -10 -101 -13 -129 -20 -215 -3 -44 -8 -91 -10
-105 -2 -14 -6 -56 -10 -95 -3 -38 -8 -83 -10 -100 -2 -16 -7 -61 -10 -98 -4
-37 -8 -76 -10 -85 -1 -9 -6 -44 -9 -77 -9 -80 -45 -373 -51 -405 -2 -14 -11
-77 -20 -140 -9 -63 -19 -128 -21 -145 -3 -16 -7 -41 -9 -55 -9 -67 -37 -229
-45 -265 -5 -22 -11 -61 -14 -86 -3 -26 -8 -53 -10 -60 -3 -8 -7 -30 -10 -49
-11 -71 -67 -341 -117 -560 l-51 -225 -112 -67 c-335 -201 -542 -314 -836
-456 -250 -121 -764 -342 -795 -342 -6 0 -1 77 10 150 2 14 6 57 10 95 3 39 8
85 11 103 11 79 13 101 19 167 3 39 8 90 11 115 26 257 21 615 -11 825 -2 17
-7 53 -11 80 -16 125 -90 378 -136 464 -120 222 -323 363 -523 362 -76 -1 -79
-1 -174 -26 -148 -38 -354 -174 -510 -334 -69 -72 -167 -178 -196 -214 -16
-21 -40 -50 -53 -65 -73 -86 -246 -327 -377 -523 -173 -262 -186 -283 -329
-524 -59 -99 -111 -187 -116 -195 -54 -87 -192 -347 -393 -740 -74 -146 -145
-284 -157 -307 l-23 -42 -81 -3 c-114 -5 -753 0 -861 6 -113 7 -246 16 -305
21 -266 23 -262 23 -254 49 5 18 48 133 141 376 91 239 186 550 217 710 2 14
14 72 26 130 12 58 23 121 26 140 2 19 8 60 14 90 5 30 11 75 14 100 15 134
19 167 22 185 5 25 5 302 0 335 -2 14 -7 47 -10 74 -12 90 -44 222 -74 300
-104 266 -311 445 -557 481 -22 4 -48 9 -58 12 -32 9 -229 5 -302 -7 -123 -19
-129 -20 -161 -31 -17 -5 -40 -11 -51 -13 -31 -6 -154 -44 -193 -60 -351 -141
-590 -278 -950 -545 -208 -154 -364 -293 -610 -540 -304 -306 -388 -399 -585
-646 -70 -88 -131 -161 -136 -163 -14 -6 -382 191 -607 323 -312 184 -597 375
-924 621 -141 107 -156 118 -217 169 -20 17 -61 50 -91 75 -30 24 -97 80 -148
124 l-93 80 5 55 c6 57 10 93 26 216 5 39 12 95 15 125 3 30 10 80 15 110 5
30 12 75 15 100 3 25 8 52 10 60 2 8 6 38 10 65 3 28 8 57 10 65 2 8 7 33 10
55 3 22 8 56 11 75 3 19 16 96 30 170 14 74 29 158 34 185 18 100 20 111 30
155 5 25 12 56 14 70 2 14 25 126 51 250 137 663 269 1087 433 1390 371 685
1019 1076 2132 1285 14 3 36 7 50 10 29 6 84 15 123 21 15 2 39 6 55 8 69 11
171 26 212 31 25 3 79 10 120 16 41 5 93 12 115 14 22 3 56 7 75 10 60 8 123
15 170 19 141 13 179 17 213 21 92 12 116 14 177 20 36 3 81 8 100 10 19 2 64
7 100 11 36 3 76 7 90 9 14 1 57 6 95 9 39 4 77 9 85 11 8 2 42 6 75 9 33 4
71 8 85 10 14 2 46 7 71 10 53 8 53 8 214 35 66 12 131 23 145 26 14 3 41 8
60 11 54 10 60 11 175 39 39 9 81 19 95 21 14 3 48 11 75 19 28 7 93 25 145
40 302 83 654 220 880 342 136 74 145 80 248 146 579 376 1028 919 1262 1525
46 119 90 268 105 351 3 19 8 37 10 40 2 4 6 27 9 51 4 25 11 78 17 118 18
123 14 365 -7 487 -28 165 -58 261 -121 394 -144 303 -391 527 -719 654 -94
37 -367 129 -595 202 -231 74 -374 132 -602 247 -584 293 -941 691 -960 1073
-26 506 546 1016 1484 1324 131 42 381 114 439 125 8 1 33 8 55 14 40 11 61
15 144 29 25 4 48 8 51 8 3 1 23 5 45 9 179 35 278 94 325 194 12 26 64 168
116 317 118 342 123 356 133 380 5 11 30 74 56 140 101 256 242 517 347 639
101 119 137 135 199 93z m-3640 -13752 c100 -52 141 -191 135 -460 -2 -88 -6
-173 -9 -190 -3 -16 -8 -57 -11 -90 -4 -33 -11 -82 -16 -110 -5 -27 -11 -63
-14 -80 -8 -56 -45 -229 -70 -328 -53 -208 -107 -367 -219 -647 -27 -69 -50
-129 -51 -135 -1 -5 -4 -14 -7 -20 -10 -17 -58 -168 -62 -195 -5 -28 -7 -29
-102 -11 -38 7 -79 15 -90 16 -100 15 -496 107 -715 167 -361 98 -810 251
-1107 376 l-92 38 37 45 c20 25 53 65 72 89 48 61 90 110 120 141 14 15 52 58
85 95 71 81 421 434 518 523 293 266 746 568 1010 672 29 11 66 27 82 34 71
31 199 66 295 80 25 4 46 7 47 8 8 8 142 -7 164 -18z m4119 -146 c45 -148 64
-270 77 -484 11 -183 5 -459 -12 -546 -2 -10 -6 -46 -9 -81 -4 -35 -8 -81 -11
-103 -3 -22 -7 -62 -10 -90 -4 -27 -8 -66 -11 -86 -2 -20 -6 -56 -9 -80 -4
-42 -11 -102 -21 -179 -2 -19 -6 -51 -8 -70 -14 -113 -18 -145 -22 -149 -10
-11 -604 -166 -707 -185 -15 -2 -35 -7 -45 -10 -9 -3 -29 -8 -44 -11 -16 -3
-39 -7 -53 -10 -27 -5 -48 -9 -110 -20 -22 -4 -71 -13 -110 -20 -38 -8 -86
-16 -105 -19 -19 -3 -44 -7 -55 -10 -11 -2 -42 -7 -70 -10 -27 -4 -61 -9 -75
-11 -110 -18 -254 -34 -258 -30 -9 9 247 503 381 735 83 144 253 426 288 477
16 23 29 44 29 47 0 4 15 28 33 54 17 26 37 55 42 65 30 49 192 279 276 392
110 147 166 213 283 335 100 103 150 145 224 187 l56 32 18 -27 c10 -15 27
-57 38 -93z"/>
<path d="M9312 17608 c-80 -163 -135 -294 -188 -452 -148 -447 -118 -742 110
-1081 60 -88 222 -261 301 -320 22 -16 42 -32 45 -36 10 -12 129 -89 137 -89
11 1 142 171 195 255 108 172 170 315 215 500 2 11 7 65 9 121 5 119 -14 207
-70 324 -34 73 -76 150 -86 160 -3 3 -32 46 -65 95 -55 83 -161 226 -211 285
-130 153 -317 360 -325 360 -4 0 -34 -55 -67 -122z m277 -726 c94 -132 148
-237 159 -307 14 -88 -19 -220 -90 -359 l-20 -39 -24 29 c-126 152 -193 315
-195 471 -1 84 5 121 38 246 21 80 29 96 39 85 7 -7 49 -64 93 -126z"/>
<path d="M6260 17089 c11 -46 29 -122 40 -169 12 -47 28 -112 36 -145 35 -140
144 -479 209 -645 78 -199 194 -422 288 -549 175 -238 495 -426 937 -551 126
-35 327 -80 425 -95 22 -3 67 -10 100 -15 127 -20 280 -35 355 -35 l65 0 3 40
c11 143 3 346 -18 457 -72 376 -224 671 -480 928 -130 131 -138 138 -272 227
-304 201 -852 420 -1437 573 -152 40 -176 45 -238 57 l-31 5 18 -83z m953
-605 c382 -151 642 -321 816 -534 104 -127 199 -302 245 -450 26 -87 47 -182
41 -189 -6 -6 -146 20 -290 54 -497 118 -761 261 -920 500 -66 98 -148 270
-214 448 -47 126 -111 311 -111 320 0 6 316 -102 433 -149z"/>
<path d="M6177 14835 c-1 -1 -55 -5 -120 -9 -121 -6 -330 -30 -447 -51 -14 -2
-41 -7 -61 -9 -71 -10 -427 -85 -544 -115 -66 -16 -131 -32 -145 -35 -83 -16
-524 -147 -554 -164 -5 -3 -2 -10 6 -16 17 -13 95 -76 112 -91 11 -10 105 -88
162 -133 98 -80 392 -296 524 -386 464 -316 807 -483 1130 -551 144 -30 519
-22 705 15 28 6 61 12 75 15 237 45 442 105 708 209 263 102 532 230 532 251
0 8 -10 26 -23 42 -13 15 -30 39 -39 53 -8 14 -43 59 -78 100 -194 234 -401
408 -666 562 -64 38 -271 138 -283 138 -4 0 -36 12 -72 26 -110 45 -353 108
-494 129 -81 12 -418 27 -428 20z m343 -398 c19 -2 71 -12 115 -21 44 -9 90
-18 103 -21 106 -20 327 -105 470 -180 188 -100 459 -302 436 -325 -26 -25
-440 -161 -567 -186 -10 -2 -26 -5 -35 -8 -9 -3 -33 -8 -52 -11 -19 -3 -60
-10 -90 -16 -159 -30 -486 -33 -617 -6 -260 55 -539 198 -986 505 -107 74
-163 118 -155 123 11 5 86 22 288 65 327 68 551 92 830 89 124 -2 241 -5 260
-8z"/>
<path d="M7019 12806 c-2 -2 -33 -6 -69 -10 -356 -33 -624 -177 -977 -525 -63
-62 -247 -261 -275 -297 -12 -16 -25 -31 -29 -34 -37 -29 -388 -495 -378 -503
5 -4 303 -44 394 -53 33 -3 74 -7 90 -9 17 -2 73 -6 125 -10 52 -4 106 -8 119
-11 45 -7 354 -17 521 -18 533 -1 835 56 1152 215 167 84 301 181 433 314 105
105 115 117 188 222 96 138 205 368 223 474 5 25 2 27 -123 62 -306 86 -490
123 -863 173 -50 7 -525 16 -531 10z m371 -380 c74 -3 146 -8 160 -10 14 -3
48 -7 75 -11 85 -10 119 -16 150 -22 17 -4 32 -7 35 -8 3 -1 28 -5 55 -10 28
-5 52 -9 55 -10 3 -1 24 -5 48 -10 23 -4 42 -9 42 -11 0 -15 -81 -115 -150
-185 -146 -148 -291 -243 -485 -317 -54 -21 -182 -58 -230 -66 -232 -42 -345
-50 -640 -49 -176 0 -467 13 -493 22 -15 5 266 296 388 402 136 119 285 208
390 235 8 2 33 8 55 14 22 5 63 13 90 16 28 3 53 8 57 11 5 2 56 7 115 10 60
3 109 7 111 8 2 2 11 1 20 0 9 -2 78 -6 152 -9z"/>
<path d="M9275 11588 c-387 -50 -748 -224 -963 -463 -83 -92 -99 -112 -130
-160 -73 -114 -149 -318 -182 -485 -5 -30 -13 -66 -15 -80 -7 -31 -12 -70 -20
-135 -3 -27 -8 -63 -10 -80 -11 -74 -15 -130 -21 -280 -7 -149 -8 -211 -5
-342 l1 -51 68 24 c677 249 1114 486 1297 705 145 173 224 530 194 874 -13
155 -21 230 -25 236 -1 3 -6 28 -10 55 -3 27 -14 81 -23 119 l-17 70 -40 1
c-21 0 -66 -3 -99 -8z m-172 -470 c8 -68 0 -327 -12 -387 -53 -260 -141 -347
-568 -556 -94 -47 -176 -85 -182 -85 -5 0 -8 8 -7 18 2 9 7 44 11 77 22 197
73 403 127 509 24 49 116 171 155 206 127 115 225 173 408 244 58 22 62 20 68
-26z"/>
<path d="M13363 14519 c-171 -22 -337 -145 -410 -306 -90 -196 -50 -430 100
-583 111 -114 230 -164 387 -163 168 0 302 66 415 203 120 146 145 381 59 551
-106 212 -321 328 -551 298z"/>
</g>
</svg>
